<svg width="97" height="97" viewBox="0 0 97 97" fill="none" xmlns="http://www.w3.org/2000/svg">
<rect x="1" y="1" width="95" height="95" rx="9" fill="#2284DF"/>
<rect x="1" y="1" width="95" height="95" rx="9" stroke="white" stroke-width="2"/>
<g clip-path="url(#clip0_4028_4076)">
<path d="M73.5 44.3334V39.9771C73.5002 38.8543 73.1979 37.7521 72.6249 36.7865C72.0519 35.8209 71.2294 35.0274 70.2437 34.4896L51.4937 24.2625C50.5759 23.7601 49.5464 23.4968 48.5 23.4968C47.4536 23.4968 46.4241 23.7601 45.5062 24.2625L26.7562 34.4896C25.7706 35.0274 24.9481 35.8209 24.3751 36.7865C23.8021 37.7521 23.4998 38.8543 23.5 39.9771V44.3334H29.75V63.0834H25.5833V69.3334H23.5V73.5H73.5V69.3334H71.4167V63.0834H67.25V44.3334H73.5ZM52.6667 44.3334V63.0834H44.3333V44.3334H52.6667ZM33.9167 44.3334H40.1667V63.0834H33.9167V44.3334ZM63.0833 63.0834H56.8333V44.3334H63.0833V63.0834Z" fill="white"/>
</g>
<defs>
<clipPath id="clip0_4028_4076">
<rect width="50" height="50" fill="white" transform="translate(23.5 23.5)"/>
</clipPath>
</defs>
</svg>
