<svg width="32" height="33" viewBox="0 0 32 33" fill="none" xmlns="http://www.w3.org/2000/svg">
<path d="M2.66666 7.52671L4.37333 5.83337L26.6667 28.1267L24.9733 29.8334L20.8667 25.7267C19.3333 26.2334 17.7067 26.5 16 26.5C9.33333 26.5 3.63999 22.3534 1.33333 16.5C2.25333 14.1534 3.71999 12.0867 5.58666 10.4467L2.66666 7.52671ZM16 12.5C17.0609 12.5 18.0783 12.9215 18.8284 13.6716C19.5786 14.4218 20 15.4392 20 16.5C20 16.9667 19.92 17.42 19.7733 17.8334L14.6667 12.7267C15.08 12.58 15.5333 12.5 16 12.5ZM16 6.50004C22.6667 6.50004 28.36 10.6467 30.6667 16.5C29.5733 19.2734 27.72 21.6734 25.3333 23.42L23.44 21.5134C25.2533 20.26 26.7467 18.5534 27.76 16.5C25.56 12.02 21.0133 9.16671 16 9.16671C14.5467 9.16671 13.12 9.40671 11.7867 9.83337L9.73333 7.79337C11.6533 6.96671 13.7733 6.50004 16 6.50004ZM4.23999 16.5C6.43999 20.98 10.9867 23.8334 16 23.8334C16.92 23.8334 17.8267 23.74 18.6667 23.5534L15.6267 20.5C13.72 20.3 12.2 18.78 12 16.8734L7.46666 12.3267C6.14666 13.46 5.03999 14.8734 4.23999 16.5Z" fill="black"/>
</svg>
