<svg width="20" height="20" viewBox="0 0 20 20" fill="none" xmlns="http://www.w3.org/2000/svg">
<g clip-path="url(#clip0_6122_2264)">
<path d="M1.66667 17.5V2.5C1.66667 2.27899 1.75446 2.06702 1.91074 1.91074C2.06702 1.75446 2.27899 1.66667 2.5 1.66667H6.66667V0H2.5C1.83696 0 1.20107 0.263392 0.732233 0.732233C0.263392 1.20107 0 1.83696 0 2.5L0 17.5C0 18.163 0.263392 18.7989 0.732233 19.2678C1.20107 19.7366 1.83696 20 2.5 20H6.66667V18.3333H2.5C2.27899 18.3333 2.06702 18.2455 1.91074 18.0893C1.75446 17.933 1.66667 17.721 1.66667 17.5Z" fill="white"/>
<path d="M19.2695 8.23182L15.4478 4.41016L14.2695 5.58849L17.8228 9.14182L4.16699 9.16599V10.8327L17.8695 10.8085L14.2678 14.4102L15.4462 15.5885L19.2678 11.7668C19.7367 11.2982 20.0003 10.6626 20.0006 9.99967C20.0009 9.33676 19.7379 8.70086 19.2695 8.23182Z" fill="white"/>
</g>
<defs>
<clipPath id="clip0_6122_2264">
<rect width="20" height="20" fill="white"/>
</clipPath>
</defs>
</svg>
