<svg width="20" height="20" viewBox="0 0 20 20" fill="none" xmlns="http://www.w3.org/2000/svg">
<g clip-path="url(#clip0_6122_6224)">
<path d="M20 8.33363V6.59113C20.0001 6.142 19.8792 5.70114 19.65 5.31489C19.4208 4.92864 19.0918 4.61127 18.6975 4.39613L11.1975 0.3053C10.8304 0.10435 10.4185 -0.000976562 10 -0.000976562C9.58146 -0.000976562 9.16965 0.10435 8.8025 0.3053L1.3025 4.39613C0.908244 4.61127 0.579225 4.92864 0.350027 5.31489C0.120829 5.70114 -8.30872e-05 6.142 4.28364e-08 6.59113V8.33363H2.5V15.8336H0.833333V18.3336H4.28364e-08V20.0003H20V18.3336H19.1667V15.8336H17.5V8.33363H20ZM11.6667 8.33363V15.8336H8.33333V8.33363H11.6667ZM4.16667 8.33363H6.66667V15.8336H4.16667V8.33363ZM15.8333 15.8336H13.3333V8.33363H15.8333V15.8336Z" fill="white"/>
</g>
<defs>
<clipPath id="clip0_6122_6224">
<rect width="20" height="20" fill="white"/>
</clipPath>
</defs>
</svg>

<svg width="20" height="20" viewBox="0 0 20 20" fill="none" xmlns="http://www.w3.org/2000/svg">
<path d="M20 8.33363V6.59113C20.0001 6.142 19.8792 5.70114 19.65 5.31489C19.4208 4.92864 19.0918 4.61127 18.6975 4.39613L11.1975 0.3053C10.8304 0.10435 10.4185 -0.000976562 10 -0.000976562C9.58146 -0.000976562 9.16965 0.10435 8.8025 0.3053L1.3025 4.39613C0.908244 4.61127 0.579225 4.92864 0.350027 5.31489C0.120829 5.70114 -8.30872e-05 6.142 4.28364e-08 6.59113V8.33363H2.5V15.8336H0.833333V18.3336H4.28364e-08V20.0003H20V18.3336H19.1667V15.8336H17.5V8.33363H20ZM11.6667 8.33363V15.8336H8.33333V8.33363H11.6667ZM4.16667 8.33363H6.66667V15.8336H4.16667V8.33363ZM15.8333 15.8336H13.3333V8.33363H15.8333V15.8336Z" fill="white"/>
</svg>