<svg width="24" height="24" viewBox="0 0 24 24" fill="none" xmlns="http://www.w3.org/2000/svg">
<g clip-path="url(#clip0_4016_3936)">
<path d="M20.9999 12C20.9997 11.4483 20.9495 10.8977 20.8499 10.355L23.8929 8.6L20.8929 3.4L17.8489 5.159C17.0085 4.43993 16.0427 3.88194 14.9999 3.513V0H8.99995V3.513C7.9572 3.88194 6.9914 4.43993 6.15095 5.159L3.10695 3.4L0.106949 8.6L3.14995 10.355C2.95006 11.4426 2.95006 12.5574 3.14995 13.645L0.106949 15.4L3.10695 20.6L6.15095 18.842C6.99148 19.5607 7.95728 20.1184 8.99995 20.487V24H14.9999V20.487C16.0427 20.1181 17.0085 19.5601 17.8489 18.841L20.8929 20.6L23.8929 15.4L20.8499 13.645C20.9495 13.1023 20.9997 12.5517 20.9999 12ZM14.9999 12C14.9999 12.5933 14.824 13.1734 14.4944 13.6667C14.1647 14.1601 13.6962 14.5446 13.148 14.7716C12.5998 14.9987 11.9966 15.0581 11.4147 14.9424C10.8327 14.8266 10.2982 14.5409 9.87863 14.1213C9.45907 13.7018 9.17335 13.1672 9.05759 12.5853C8.94184 12.0033 9.00125 11.4001 9.22831 10.8519C9.45537 10.3038 9.83989 9.83524 10.3332 9.50559C10.8266 9.17595 11.4066 9 11.9999 9C12.7956 9 13.5587 9.31607 14.1213 9.87868C14.6839 10.4413 14.9999 11.2044 14.9999 12Z" fill="#374957"/>
</g>
<defs>
<clipPath id="clip0_4016_3936">
<rect width="24" height="24" fill="white"/>
</clipPath>
</defs>
</svg>