                    <svg class="w-6 h-6 mr-3 sidebar-icon" width="20" height="20" viewBox="0 0 20 20" fill="currentColor">
                    <g clip-path="url(#clip0_4030_8950)">
                    <path d="M5.83333 0H3.33333C1.49238 0 0 1.49238 0 3.33333V5.83333C0 7.67428 1.49238 9.16667 3.33333 9.16667H5.83333C7.67428 9.16667 9.16667 7.67428 9.16667 5.83333V3.33333C9.16667 1.49238 7.67428 0 5.83333 0Z"/>
                    <path d="M16.6666 0H14.1666C12.3256 0 10.8333 1.49239 10.8333 3.33334V5.83334C10.8333 7.67429 12.3256 9.16667 14.1666 9.16667H16.6666C18.5075 9.16667 19.9999 7.67429 19.9999 5.83334V3.33334C19.9999 1.49239 18.5075 0 16.6666 0Z"/>
                    <path d="M5.83333 10.8334H3.33333C1.49238 10.8334 0 12.3258 0 14.1667V16.6667C0 18.5077 1.49238 20.0001 3.33333 20.0001H5.83333C7.67428 20.0001 9.16667 18.5077 9.16667 16.6667V14.1667C9.16667 12.3258 7.67428 10.8334 5.83333 10.8334Z"/>
                    <path d="M16.6666 10.8334H14.1666C12.3256 10.8334 10.8333 12.3258 10.8333 14.1667V16.6667C10.8333 18.5077 12.3256 20.0001 14.1666 20.0001H16.6666C18.5075 20.0001 19.9999 18.5077 19.9999 16.6667V14.1667C19.9999 12.3258 18.5075 10.8334 16.6666 10.8334Z"/>
                    </svg>