<svg width="97" height="101" viewBox="0 0 97 101" fill="none" xmlns="http://www.w3.org/2000/svg">
<rect x="1" y="1" width="95" height="99" rx="9" fill="#2284DF"/>
<rect x="1" y="1" width="95" height="99" rx="9" stroke="white" stroke-width="2"/>
<g clip-path="url(#clip0_4030_9185)">
<path d="M46.4167 25.5H29.75C28.0924 25.5 26.5027 26.1585 25.3306 27.3306C24.1585 28.5027 23.5 30.0924 23.5 31.75V75.5H52.6667V31.75C52.6667 30.0924 52.0082 28.5027 50.8361 27.3306C49.664 26.1585 48.0743 25.5 46.4167 25.5V25.5ZM36 65.0833H29.75V60.9167H36V65.0833ZM36 56.75H29.75V52.5833H36V56.75ZM36 48.4167H29.75V44.25H36V48.4167ZM36 40.0833H29.75V35.9167H36V40.0833ZM46.4167 65.0833H40.1667V60.9167H46.4167V65.0833ZM46.4167 56.75H40.1667V52.5833H46.4167V56.75ZM46.4167 48.4167H40.1667V44.25H46.4167V48.4167ZM46.4167 40.0833H40.1667V35.9167H46.4167V40.0833ZM67.25 35.9167H56.8333V75.5H73.5V42.1667C73.5 40.5091 72.8415 38.9194 71.6694 37.7472C70.4973 36.5751 68.9076 35.9167 67.25 35.9167ZM67.25 65.0833H63.0833V60.9167H67.25V65.0833ZM67.25 56.75H63.0833V52.5833H67.25V56.75ZM67.25 48.4167H63.0833V44.25H67.25V48.4167Z" fill="white"/>
</g>
<defs>
<clipPath id="clip0_4030_9185">
<rect width="50" height="50" fill="white" transform="translate(23.5 25.5)"/>
</clipPath>
</defs>
</svg>