<svg width="485" height="79" viewBox="0 0 485 79" fill="none" xmlns="http://www.w3.org/2000/svg">
<path d="M0.884842 1.35254H8.84773V11.0908L17.1973 1.35254H27.7794L18.3927 11.0732L28.2012 27.1221H18.3927L12.961 16.5225L8.84773 20.8291V27.1221H0.884842V1.35254ZM52.4534 22.8682H43.3831L42.1351 27.1221H33.9964L43.682 1.35254H52.3655L62.0511 27.1221H53.7191L52.4534 22.8682ZM50.7835 17.2959L47.9359 8.03223L45.1058 17.2959H50.7835ZM70.483 27.1221V1.35254H83.7545C86.2154 1.35254 88.0963 1.56348 89.397 1.98535C90.6978 2.40723 91.7466 3.19238 92.5435 4.34082C93.3404 5.47754 93.7388 6.86621 93.7388 8.50684C93.7388 9.93652 93.4341 11.1729 92.8248 12.2158C92.2154 13.2471 91.3775 14.085 90.3111 14.7295C89.6314 15.1396 88.6998 15.4795 87.5162 15.749C88.4654 16.0654 89.1568 16.3818 89.5904 16.6982C89.8834 16.9092 90.3052 17.3604 90.856 18.0518C91.4185 18.7432 91.7935 19.2764 91.981 19.6514L95.8306 27.1221H86.8306L82.5767 19.2471C82.0377 18.2275 81.5572 17.5654 81.1353 17.2607C80.5611 16.8623 79.9107 16.6631 79.1841 16.6631H78.481V27.1221H70.483ZM78.481 11.7939H81.8384C82.2017 11.7939 82.9048 11.6768 83.9478 11.4424C84.4752 11.3369 84.9029 11.0674 85.231 10.6338C85.5709 10.2002 85.7408 9.70215 85.7408 9.13965C85.7408 8.30762 85.4771 7.66895 84.9498 7.22363C84.4224 6.77832 83.4322 6.55566 81.9791 6.55566H78.481V11.7939ZM102.03 1.35254H126.235V7.71582H118.114V27.1221H110.151V7.71582H102.03V1.35254ZM152.386 1.35254H160.331V16.7158C160.331 18.2393 160.091 19.6807 159.61 21.04C159.142 22.3877 158.398 23.5713 157.378 24.5908C156.37 25.5986 155.31 26.3076 154.196 26.7178C152.649 27.292 150.792 27.5791 148.624 27.5791C147.37 27.5791 145.999 27.4912 144.511 27.3154C143.034 27.1396 141.798 26.7939 140.802 26.2783C139.806 25.751 138.892 25.0068 138.06 24.0459C137.239 23.085 136.677 22.0947 136.372 21.0752C135.88 19.4346 135.634 17.9814 135.634 16.7158V1.35254H143.579V17.085C143.579 18.4912 143.966 19.5928 144.739 20.3896C145.524 21.1748 146.608 21.5674 147.991 21.5674C149.362 21.5674 150.435 21.1807 151.208 20.4072C151.993 19.6221 152.386 18.5146 152.386 17.085V1.35254ZM189.464 1.35254H197.445V27.1221H189.464V1.35254ZM208.988 1.35254H216.424L226.127 15.6084V1.35254H233.633V27.1221H226.127L216.476 12.9717V27.1221H208.988V1.35254ZM242.135 1.35254H250.467L256.268 19.8975L261.98 1.35254H270.066L260.504 27.1221H251.873L242.135 1.35254ZM278.446 1.35254H299.785V6.85449H286.426V10.9502H298.819V16.2061H286.426V21.2861H300.172V27.1221H278.446V1.35254ZM310.292 1.35254H317.727L327.43 15.6084V1.35254H334.936V27.1221H327.43L317.78 12.9717V27.1221H310.292V1.35254ZM344.177 1.35254H368.382V7.71582H360.26V27.1221H352.298V7.71582H344.177V1.35254ZM391.157 22.8682H382.087L380.839 27.1221H372.7L382.386 1.35254H391.069L400.755 27.1221H392.423L391.157 22.8682ZM389.487 17.2959L386.64 8.03223L383.81 17.2959H389.487ZM409.187 27.1221V1.35254H422.458C424.919 1.35254 426.8 1.56348 428.101 1.98535C429.402 2.40723 430.45 3.19238 431.247 4.34082C432.044 5.47754 432.443 6.86621 432.443 8.50684C432.443 9.93652 432.138 11.1729 431.529 12.2158C430.919 13.2471 430.081 14.085 429.015 14.7295C428.335 15.1396 427.404 15.4795 426.22 15.749C427.169 16.0654 427.861 16.3818 428.294 16.6982C428.587 16.9092 429.009 17.3604 429.56 18.0518C430.122 18.7432 430.497 19.2764 430.685 19.6514L434.534 27.1221H425.534L421.28 19.2471C420.741 18.2275 420.261 17.5654 419.839 17.2607C419.265 16.8623 418.614 16.6631 417.888 16.6631H417.185V27.1221H409.187ZM417.185 11.7939H420.542C420.905 11.7939 421.609 11.6768 422.652 11.4424C423.179 11.3369 423.607 11.0674 423.935 10.6338C424.275 10.2002 424.445 9.70215 424.445 9.13965C424.445 8.30762 424.181 7.66895 423.654 7.22363C423.126 6.77832 422.136 6.55566 420.683 6.55566H417.185V11.7939ZM443.177 1.35254H451.158V27.1221H443.177V1.35254ZM461.259 18.5967L468.836 18.1221C469 19.3525 469.334 20.29 469.838 20.9346C470.658 21.9775 471.83 22.499 473.353 22.499C474.49 22.499 475.363 22.2354 475.972 21.708C476.593 21.1689 476.904 20.5479 476.904 19.8447C476.904 19.1768 476.611 18.5791 476.025 18.0518C475.439 17.5244 474.08 17.0264 471.947 16.5576C468.455 15.7725 465.965 14.7295 464.476 13.4287C462.976 12.1279 462.226 10.4697 462.226 8.4541C462.226 7.12988 462.607 5.88184 463.369 4.70996C464.142 3.52637 465.297 2.60059 466.832 1.93262C468.379 1.25293 470.494 0.913086 473.177 0.913086C476.47 0.913086 478.978 1.52832 480.701 2.75879C482.435 3.97754 483.466 5.92285 483.795 8.59473L476.289 9.03418C476.09 7.87402 475.668 7.03027 475.023 6.50293C474.39 5.97559 473.511 5.71191 472.386 5.71191C471.461 5.71191 470.763 5.91113 470.295 6.30957C469.826 6.69629 469.591 7.1709 469.591 7.7334C469.591 8.14355 469.785 8.5127 470.172 8.84082C470.547 9.18066 471.437 9.49707 472.843 9.79004C476.324 10.54 478.814 11.3018 480.314 12.0752C481.826 12.8369 482.922 13.7861 483.601 14.9229C484.293 16.0596 484.638 17.3311 484.638 18.7373C484.638 20.3896 484.181 21.9131 483.267 23.3076C482.353 24.7021 481.076 25.7627 479.435 26.4893C477.795 27.2041 475.726 27.5615 473.23 27.5615C468.847 27.5615 465.812 26.7178 464.125 25.0303C462.437 23.3428 461.482 21.1982 461.259 18.5967ZM129.388 78.1221V52.3525H142.659C145.12 52.3525 147.001 52.5635 148.302 52.9854C149.603 53.4072 150.652 54.1924 151.449 55.3408C152.245 56.4775 152.644 57.8662 152.644 59.5068C152.644 60.9365 152.339 62.1729 151.73 63.2158C151.12 64.2471 150.283 65.085 149.216 65.7295C148.536 66.1396 147.605 66.4795 146.421 66.749C147.37 67.0654 148.062 67.3818 148.495 67.6982C148.788 67.9092 149.21 68.3604 149.761 69.0518C150.324 69.7432 150.699 70.2764 150.886 70.6514L154.736 78.1221H145.736L141.482 70.2471C140.943 69.2275 140.462 68.5654 140.04 68.2607C139.466 67.8623 138.816 67.6631 138.089 67.6631H137.386V78.1221H129.388ZM137.386 62.7939H140.743C141.107 62.7939 141.81 62.6768 142.853 62.4424C143.38 62.3369 143.808 62.0674 144.136 61.6338C144.476 61.2002 144.646 60.7021 144.646 60.1396C144.646 59.3076 144.382 58.6689 143.855 58.2236C143.327 57.7783 142.337 57.5557 140.884 57.5557H137.386V62.7939ZM179.199 52.3525H187.144V67.7158C187.144 69.2393 186.904 70.6807 186.423 72.04C185.955 73.3877 185.21 74.5713 184.191 75.5908C183.183 76.5986 182.123 77.3076 181.009 77.7178C179.462 78.292 177.605 78.5791 175.437 78.5791C174.183 78.5791 172.812 78.4912 171.324 78.3154C169.847 78.1396 168.611 77.7939 167.615 77.2783C166.619 76.751 165.705 76.0068 164.873 75.0459C164.052 74.085 163.49 73.0947 163.185 72.0752C162.693 70.4346 162.447 68.9814 162.447 67.7158V52.3525H170.392V68.085C170.392 69.4912 170.779 70.5928 171.552 71.3896C172.337 72.1748 173.421 72.5674 174.804 72.5674C176.175 72.5674 177.248 72.1807 178.021 71.4072C178.806 70.6221 179.199 69.5146 179.199 68.085V52.3525ZM212.803 73.8682H203.732L202.484 78.1221H194.345L204.031 52.3525H212.715L222.4 78.1221H214.068L212.803 73.8682ZM211.133 68.2959L208.285 59.0322L205.455 68.2959H211.133ZM230.779 52.3525H238.215L247.918 66.6084V52.3525H255.424V78.1221H247.918L238.268 63.9717V78.1221H230.779V52.3525ZM279.43 68.7881V63.4268H291.735V74.4131C289.379 76.0186 287.293 77.1143 285.477 77.7002C283.672 78.2744 281.528 78.5615 279.043 78.5615C275.985 78.5615 273.489 78.04 271.555 76.9971C269.633 75.9541 268.139 74.4014 267.073 72.3389C266.018 70.2764 265.49 67.9092 265.49 65.2373C265.49 62.4248 266.071 59.9814 267.231 57.9072C268.391 55.8213 270.09 54.2393 272.328 53.1611C274.074 52.3291 276.424 51.9131 279.377 51.9131C282.225 51.9131 284.352 52.1709 285.758 52.6865C287.176 53.2021 288.348 54.0049 289.274 55.0947C290.211 56.1729 290.914 57.5439 291.383 59.208L283.701 60.5791C283.385 59.6064 282.846 58.8623 282.084 58.3467C281.334 57.8311 280.373 57.5732 279.201 57.5732C277.455 57.5732 276.061 58.1826 275.018 59.4014C273.987 60.6084 273.471 62.5244 273.471 65.1494C273.471 67.9385 273.992 69.9307 275.035 71.126C276.09 72.3213 277.555 72.9189 279.43 72.9189C280.321 72.9189 281.17 72.79 281.979 72.5322C282.787 72.2744 283.713 71.835 284.756 71.2139V68.7881H279.43ZM318.079 73.8682H309.008L307.76 78.1221H299.622L309.307 52.3525H317.991L327.676 78.1221H319.344L318.079 73.8682ZM316.409 68.2959L313.561 59.0322L310.731 68.2959H316.409ZM336.055 52.3525H343.491L353.194 66.6084V52.3525H360.7V78.1221H353.194L343.544 63.9717V78.1221H336.055V52.3525Z" fill="#2284DF"/>
</svg>
