<?xml version="1.0" encoding="UTF-8"?>
<svg version="1.1" xmlns="http://www.w3.org/2000/svg" width="24" height="24">
<path d="M0 0 C2.625 0.375 2.625 0.375 5 1 C6.125 5.75 6.125 5.75 5 8 C6.65 8.99 8.3 9.98 10 11 C9.67 12.65 9.34 14.3 9 16 C4.38 16 -0.24 16 -5 16 C-5.33 14.35 -5.66 12.7 -6 11 C-4.35 9.68 -2.7 8.36 -1 7 C-1.309375 5.824375 -1.309375 5.824375 -1.625 4.625 C-1.74875 3.75875 -1.8725 2.8925 -2 2 C-1.34 1.34 -0.68 0.68 0 0 Z M1 2 C1 3.32 1 4.64 1 6 C1.99 5.67 2.98 5.34 4 5 C3.67 4.01 3.34 3.02 3 2 C2.34 2 1.68 2 1 2 Z M-4 14 C-0.04 14 3.92 14 8 14 C6.41058594 10.859086 6.41058594 10.859086 4.125 10.6015625 C3.42375 10.60929688 2.7225 10.61703125 2 10.625 C0.948125 10.61339844 0.948125 10.61339844 -0.125 10.6015625 C-2.41058594 10.859086 -2.41058594 10.859086 -4 14 Z " fill="#000000" transform="translate(10,4)"/>
</svg>
