<svg width="403" height="279" viewBox="0 0 403 279" fill="none" xmlns="http://www.w3.org/2000/svg">
<path fill-rule="evenodd" clip-rule="evenodd" d="M192.681 1.65101C184.63 4.87193 176.01 16.0528 174.528 25.1987C173.773 29.8519 171.593 31.3614 165.616 31.369C161.861 31.3734 156.176 34.6551 154.081 38.028C152.929 39.885 151.277 40.0522 134.092 40.0522C113.638 40.0522 110.638 40.7136 106.927 46.0401C104.858 49.0091 104.842 49.4196 104.842 97.754V146.475H117.105L129.369 146.474V197.243V248.011L203.196 248.289L277.024 248.567L276.778 159.241L276.532 69.9158H271.241H265.951L265.705 152.727L265.459 235.539L203.185 235.259L140.911 234.98L140.665 152.122L140.417 69.2653L134.894 69.59L129.369 69.9158L129.114 101.68L128.859 133.444H122.645H116.432L116.167 95.0739C116.022 73.9707 116.042 55.8897 116.213 54.8939C116.49 53.2823 118.463 53.0836 134.143 53.0836H151.762L153.311 62.5053C155.143 73.6612 156.644 76.6454 160.862 77.5293C165.47 78.4947 244.515 77.6499 246.385 76.615C248.354 75.5258 249.648 71.8639 251.054 63.4001C251.65 59.8164 252.355 56.0189 252.623 54.9612C253.07 53.1922 254.598 53.0608 271.553 53.3323L289.997 53.6266V159.506V265.386L203.191 265.663L116.384 265.941V211.115V156.29L114.112 155.646C112.862 155.292 110.374 155.16 108.581 155.354L105.322 155.706V213.511V271.317L108.467 274.867L111.611 278.417L202.027 278.705C301.438 279.022 296.458 279.339 299.6 272.481C301.762 267.759 301.814 51.3656 299.652 46.6483C297.106 41.0872 292.726 40.0522 271.737 40.0522C254.028 40.0522 252.98 39.9371 252.006 37.8836C250.663 35.0504 244.193 31.3647 240.563 31.3647C235.052 31.3647 233.148 29.7488 231.388 23.5763C228.303 12.7516 222.549 5.81345 213.406 1.89102C207.756 -0.532816 198.41 -0.64142 192.681 1.65101ZM199.105 13.1023C190.983 14.728 186.22 21.0178 185.138 31.5439C184.121 41.4368 182.109 43.3057 172.455 43.3264C162.111 43.3492 161.872 43.5989 163.46 52.7372C164.166 56.8095 165.109 61.2477 165.553 62.5986L166.361 65.055L202.651 64.7705L238.942 64.486L240.141 57.9703C241.81 48.9049 241.74 44.7652 239.902 43.9692C239.066 43.6065 235.603 43.3101 232.208 43.3101C224.949 43.3101 222.623 41.4574 221.721 34.9548C220.713 27.692 219.157 22.1917 217.523 20.1164C212.855 14.1872 206.251 11.6721 199.105 13.1023ZM21.9629 24.318C16.6708 26.239 12.9927 30.7109 11.4778 37.0659C10.8073 39.8763 10.5255 48.7746 10.7323 60.6353C11.0439 78.5295 11.2075 79.9738 13.4303 84.3578C16.7862 90.9777 20.8894 93.5003 29.295 94.1095C40.9892 94.9566 48.6032 89.2934 50.9001 78.0387C51.4464 75.3629 51.9033 66.0541 51.9168 57.3535C51.9485 35.5792 50.1402 29.3633 42.4743 24.8935C38.8625 22.7879 27.0847 22.4566 21.9629 24.318ZM198.251 26.7494C197.136 27.7941 195.957 30.206 195.631 32.1074C195.154 34.8962 195.518 36.1037 197.509 38.3516C202.387 43.8596 209.683 40.6962 209.683 33.0729C209.683 26.4041 202.725 22.5555 198.251 26.7494ZM354.682 28.1937C353.526 28.9539 352.999 30.6512 352.999 33.6104V37.9216L374.881 37.6295L396.763 37.3374L397.07 33.1043C397.262 30.4514 396.903 28.5314 396.108 27.9624C394.269 26.6452 356.717 26.8547 354.682 28.1937ZM22.6035 29.5631C21.0164 30.3906 18.9475 32.0445 18.0058 33.2379C16.16 35.5781 14.4422 45.1562 14.4335 53.1596C14.4277 57.7173 14.6826 58.2484 17.5537 59.6753L20.6798 61.2282L20.723 73.709C20.7663 85.8477 20.8317 86.2267 23.1277 87.5385C26.6115 89.529 35.5009 89.2434 39.3675 87.0172C46.0322 83.1806 46.6102 81.164 46.9902 60.4115C47.5 32.6504 45.9504 29.1222 32.953 28.4467C27.961 28.1872 24.5329 28.5564 22.6035 29.5631ZM357.808 32.4506C357.808 33.112 362.136 33.5366 368.869 33.5366C375.602 33.5366 379.93 33.112 379.93 32.4506C379.93 31.7893 375.602 31.3647 368.869 31.3647C362.136 31.3647 357.808 31.7893 357.808 32.4506ZM29.3643 36.3752C27.4762 38.507 27.4993 40.5377 29.4383 42.7269C31.4852 45.0378 33.6647 43.0896 33.6647 38.95C33.6647 35.3805 31.4303 34.0426 29.3643 36.3752ZM346.506 42.943C345.653 43.3318 345.304 46.7536 345.304 54.7255C345.304 66.647 346.212 69.3728 350.181 69.3728C351.883 69.3728 352.037 70.2231 352.037 79.6122C352.037 94.2942 350.867 93.6003 374.756 93.0909C385.471 92.8629 394.589 92.2808 395.019 91.7965C395.449 91.3121 395.948 85.8249 396.129 79.6013L396.457 68.2868H399.152C400.723 68.2868 402.09 67.5701 402.431 66.5689C403.19 64.3362 403.19 46.1748 402.431 43.9421C401.916 42.4294 398.619 42.2339 374.778 42.3099C359.889 42.3566 347.168 42.6422 346.506 42.943ZM29.0479 52.1866C29.3018 58.2234 29.5692 59.0563 31.2601 59.0563C32.9703 59.0563 33.1838 58.332 33.1838 52.5406C33.1838 46.569 32.9991 45.9956 30.9715 45.6709C28.8391 45.3299 28.7699 45.5623 29.0479 52.1866ZM349.151 55.2555V63.9431H374.159H399.167V55.2555V46.5679H374.159H349.151V55.2555ZM360.693 51.9976C360.693 54.1641 361.12 54.2119 377.766 53.923C392.184 53.6722 394.839 53.3735 394.839 51.9976C394.839 50.6217 392.184 50.3231 377.766 50.0723C361.12 49.7834 360.693 49.8312 360.693 51.9976ZM15.2828 65.509C14.521 66.3647 15.5993 78.0604 16.4409 78.0604C17.5518 78.0604 17.5942 66.4386 16.4851 65.6654C16.0302 65.3483 15.4896 65.2777 15.2828 65.509ZM356.275 69.7919C355.993 70.6194 355.899 73.4288 356.064 76.0361L356.365 80.7752L374.4 81.0706L392.434 81.366V75.3694C392.434 70.7628 392.1 69.3728 390.992 69.3728C390.198 69.3728 389.549 70.1058 389.549 71.0017C389.549 73.4266 386.562 72.9727 385.98 70.4587C385.505 68.4095 384.668 68.2868 371.131 68.2868C359.793 68.2868 356.679 68.6028 356.275 69.7919ZM356.846 86.7479C356.846 87.4321 363.259 87.8339 374.159 87.8339C385.06 87.8339 391.473 87.4321 391.473 86.7479C391.473 86.0638 385.06 85.662 374.159 85.662C363.259 85.662 356.846 86.0638 356.846 86.7479ZM156.8 111.398C154.31 113.367 154.266 118.386 156.717 120.889C161.134 125.402 168.304 118.536 164.901 113.051C163.168 110.257 159.253 109.457 156.8 111.398ZM177.173 117.372C176.538 118.088 176.018 119.457 176.018 120.412C176.018 124.625 177.189 124.756 214.567 124.756C253.986 124.756 253.902 124.769 252.575 118.797L251.968 116.068H215.147C187.791 116.068 178.031 116.403 177.173 117.372ZM156.369 128.634C155.538 129.573 154.858 131.76 154.858 133.496C154.858 139.464 161.855 141.719 165.163 136.814C166.915 134.217 166.656 132.548 164.039 129.594C161.325 126.529 158.542 126.181 156.369 128.634ZM176.66 135.254C175.614 136.433 175.928 140.509 177.173 141.914C178.03 142.882 187.781 143.217 215.101 143.217C251.03 143.217 251.889 143.167 252.485 141.045C252.821 139.851 252.821 137.896 252.485 136.701C251.889 134.578 251.03 134.53 214.588 134.53C194.08 134.53 177.012 134.855 176.66 135.254ZM156.541 169.367C154.582 170.655 154.237 176.833 156.012 178.836C158.097 181.19 163.31 180.415 165.003 177.497C168.128 172.112 161.723 165.959 156.541 169.367ZM177.702 174.796C175.698 176.114 175.482 180.456 177.333 182.192C178.275 183.074 188.991 183.343 215.086 183.139L251.523 182.854L251.815 178.923C252.06 175.6 251.763 174.889 249.891 174.323C246.031 173.156 179.533 173.592 177.702 174.796ZM9.20587 182.931C8.37483 183.871 7.69479 186.07 7.69479 187.818C7.69479 190.142 7.23406 190.999 5.98558 190.999C5.04489 190.999 3.31356 191.76 2.13818 192.69C0.0451991 194.345 0 194.855 0 217.044V239.709L2.58928 242.008C5.10163 244.239 5.93941 244.298 30.8648 243.987C54.5464 243.692 56.7087 243.505 58.5737 241.598C60.4436 239.686 60.5965 238.395 60.5965 224.54V209.551L53.1422 209.234C46.4227 208.948 45.6878 208.703 45.6878 206.745C45.6878 204.802 46.4236 204.539 52.6612 204.254C58.845 203.971 59.6346 203.695 59.6346 201.81C59.6346 199.897 58.9411 199.686 52.6353 199.686C43.1726 199.686 40.9113 201.403 41.7096 207.982C42.0261 210.586 42.1848 212.777 42.0626 212.85C41.9405 212.923 34.2659 213.289 25.0081 213.665L8.17572 214.347L7.69479 226.292C7.3062 235.945 6.93685 238.237 5.77109 238.237C4.54762 238.237 4.28888 235.06 4.06669 217.333L3.80604 196.428L18.0135 196.172C25.8285 196.031 38.3903 195.975 45.9283 196.045L59.6346 196.173V193.587C59.6346 191.292 59.1989 190.999 55.7872 190.999C52.0389 190.999 51.9398 190.902 51.9398 187.236C51.9398 184.627 51.3695 183.129 50.0796 182.349C48.9793 181.685 40.5544 181.225 29.4682 181.225C13.7044 181.225 10.4774 181.497 9.20587 182.931ZM356.846 181.976C356.052 182.339 355.085 183.174 354.696 183.831C353.645 185.609 353.811 237.111 354.879 240.282C356.723 245.755 359.887 246.891 374.45 247.303C388.837 247.71 395.261 246.22 397.254 242.015C398.745 238.872 398.511 183.749 397.003 182.647C395.592 181.616 358.966 181.004 356.846 181.976ZM12.1837 186.293C11.8307 186.691 11.5422 187.912 11.5422 189.008C11.5422 190.868 12.7339 190.999 29.7048 190.999C46.8786 190.999 47.8943 190.884 48.357 188.89C48.6253 187.73 48.6032 186.508 48.3089 186.175C47.5413 185.309 12.9551 185.422 12.1837 186.293ZM156.992 187.262C152.901 190.497 155.276 198.6 160.315 198.6C162.909 198.6 165.438 195.274 165.438 191.861C165.438 187.14 160.528 184.467 156.992 187.262ZM359.972 186.288C359.265 186.61 358.77 188.812 358.77 191.632V196.428H376.564H394.358V191.658C394.358 188.31 393.904 186.691 392.836 186.228C391.027 185.444 361.707 185.497 359.972 186.288ZM224.592 193.133C208.199 193.683 207.265 193.829 207.032 195.885C206.436 201.152 207.196 201.327 229.48 201.022C240.938 200.866 250.693 200.473 251.159 200.148C252.393 199.288 252.192 194.903 250.85 193.388C250.215 192.671 247.943 192.19 245.8 192.318C243.657 192.446 234.114 192.813 224.592 193.133ZM176.418 195.862C175.336 200.731 177.249 201.858 186.599 201.858C195.72 201.858 197.594 200.843 197.013 196.217C196.711 193.813 196.306 193.702 186.866 193.404C177.037 193.096 177.033 193.096 176.418 195.862ZM358.77 220.824C358.77 238.463 358.9 239.869 360.63 240.914C361.675 241.545 368.81 242.038 376.913 242.038C388.742 242.038 391.607 241.731 392.847 240.332C394.101 238.915 394.358 235.506 394.358 220.242V201.858H376.564H358.77V220.824ZM362.651 209.388C362.103 210.544 361.655 212.775 361.655 214.347C361.655 219.609 363.236 221.405 367.873 221.405C373.102 221.405 375.121 219.327 375.121 213.944C375.121 208.612 373.75 207.288 368.229 207.288C364.683 207.288 363.421 207.762 362.651 209.388ZM377.983 210.073C376.699 213.884 376.806 217.364 378.276 219.634C379.245 221.128 380.634 221.463 384.768 221.199L390.03 220.862L390.326 214.993C390.674 208.086 390.002 207.328 383.513 207.304C379.462 207.29 378.811 207.616 377.983 210.073ZM367.426 213.804C367.426 214.401 367.859 214.89 368.388 214.89C368.917 214.89 369.35 214.401 369.35 213.804C369.35 213.206 368.917 212.718 368.388 212.718C367.859 212.718 367.426 213.206 367.426 213.804ZM382.816 213.804C382.816 214.401 383.465 214.89 384.259 214.89C385.052 214.89 385.701 214.401 385.701 213.804C385.701 213.206 385.052 212.718 384.259 212.718C383.465 212.718 382.816 213.206 382.816 213.804ZM45.8898 215.976C45.4108 218.043 44.5778 218.147 28.465 218.147H11.5422V228.464V238.78H33.6647H55.7872V226.292V213.804H51.0905C47.2018 213.804 46.3063 214.177 45.8898 215.976ZM363.579 225.749C359.509 230.344 362.209 238.78 367.748 238.78C372.58 238.78 375.121 236.161 375.121 231.179C375.121 228.048 374.569 226.521 372.983 225.268C370.038 222.939 365.881 223.15 363.579 225.749ZM378.648 225.387C378.295 225.785 378.007 228.456 378.007 231.321C378.007 237.027 379.476 238.78 384.259 238.78C389.214 238.78 390.511 237.083 390.511 230.598V224.663H384.9C381.814 224.663 379 224.989 378.648 225.387ZM367.426 230.636C367.426 231.632 367.892 232.27 368.46 232.056C369.029 231.842 369.494 231.204 369.494 230.636C369.494 230.068 369.029 229.429 368.46 229.215C367.892 229.001 367.426 229.64 367.426 230.636ZM382.986 230.693C383.421 233.052 385.128 233.196 385.519 230.907C385.721 229.718 385.249 229.007 384.259 229.007C383.334 229.007 382.804 229.709 382.986 230.693Z" fill="#007AD2"/>
</svg>
